# xmcd
#
# Track frame offsets: 
#        150
#        13201
#        28635
#        45688
#        57393
#        72590
#        107955
#        122648
#        137308
#        149860
#        164010
#        178258
#        191466
#        203923
#        216635
#        229421
#        247632
#        262607
#        275815
#        286668
#
# Disc length: 3905 seconds
#
# Revision: 0
# Processed by: cddbd v1.5.2PL0 Copyright (c) Steve Scherf et al.
# Submitted via: ExactAudioCopy v0.99pb4
#
DISCID=3e0f3f14
DTITLE=Blues - In a blue Hour
DYEAR=2006
DGENRE=Blues
TTITLE0=Dinah Washington - Don't Hold It against me
TTITLE1=Miles Davis - Kelo
TTITLE2=Dexter Gordon - Cry me a river
TTITLE3=Ray Charles - See see rider
TTITLE4=Charlie Parker - Lover man
TTITLE5=Clifford Brown - Jordu
TTITLE6=Wardell Gray - One for prez
TTITLE7=Jimmy Rushing - I left my baby
TTITLE8=Elmore James - Dust my room
TTITLE9=Muddy Waters - Rolling stone
TTITLE10=John Lee Hooker - Boogie Chillun
TTITLE11=Charley Patton - You're gonna need somebody
TTITLE12=Memphis Slim - Mother earth
TTITLE13=Sidney Bechet - Blues in the air
TTITLE14=Sister rosetta Tharpe - This train
TTITLE15=Dizzy Gillespie - Cripple crapple crutch
TTITLE16=Bessie Smith - Black water blues
TTITLE17=Howlin Wolf - Evil
TTITLE18=Charles Brown - Trouble blues
TTITLE19=Vera Ward Hall - Another man done gone
EXTD=
EXTT0=
EXTT1=
EXTT2=
EXTT3=
EXTT4=
EXTT5=
EXTT6=
EXTT7=
EXTT8=
EXTT9=
EXTT10=
EXTT11=
EXTT12=
EXTT13=
EXTT14=
EXTT15=
EXTT16=
EXTT17=
EXTT18=
EXTT19=
PLAYORDER=
